<?xml version="1.0" encoding="UTF-8"?>
<svg id="Layer_2" data-name="Layer 2" xmlns="http://www.w3.org/2000/svg" viewBox="0 0 43.15 116.26">
  <defs>
    <style>
      .cls-1 {
        fill: #c23f3f;
      }

      .cls-2 {
        fill: #da3e2e;
      }

      .cls-3 {
        fill: #a5a4a3;
      }
    </style>
  </defs>
  <g id="Layer_1-2" data-name="Layer 1">
    <g>
      <path class="cls-2" d="M27.53,103.3c3.75-4.55,9.11-11.12,9.8-12.46,3.52-6.87,5.2-14.89,5.68-23.26-3.13.23-5.42.65-5.42.65,1.82-1.59,3.7-2.71,5.54-3.5.02-.47.02-.94.03-1.41-2.93.24-5.03.62-5.03.62,1.65-1.44,3.35-2.49,5.02-3.27-.02-1.16-.05-2.31-.12-3.47-1.84.2-3.09.42-3.24.44,1.04-.9,2.08-1.64,3.14-2.28-.39-6.26-1.29-12.51-2.44-18.43-4.61.11-8.55.81-8.55.81,2.58-2.25,5.27-3.58,7.83-4.32-1.2-5.61-2.59-10.86-3.97-15.45-3.13.23-5.42.65-5.42.65,1.54-1.34,3.12-2.35,4.68-3.11-2.37-7.7-4.52-13.22-5.22-14.94-1.09,2.57-2.96,5.63-4.62,9.85-7.62,19.35,1.69,31.51,3.36,59.95.5,8.58.54,22.61-1.04,32.92Z"/>
      <path class="cls-1" d="M0,42.44c2.4.92,4.86,2.27,7.21,4.27,0,0-3-.64-6.95-1.06.04.37.1.73.17,1.09,2.41.91,4.88,2.28,7.25,4.29,0,0-2.79-.59-6.54-1.01,1.93,7.24,5.97,13.53,9.97,20.31,2.29.9,4.63,2.23,6.87,4.14,0,0-2.03-.43-4.97-.81,4.05,7.21,7.66,15.18,8.45,25.52.08.93.51,2.38,1.03,3.84,1.7-9.93,2.02-22.51,1.77-30.46-.94-28.55-10.97-41.24-1.83-60.17C25.13,6.77,28.21,3.33,28.92.21c-1.26.94-5.73,4.38-10.8,9.37.43.98.78,2.04,1.06,3.17,0,0-.83-.82-2.22-2.01-2.12,2.15-4.31,4.55-6.38,7.13,1.47.79,2.94,1.77,4.37,2.99,0,0-2.5-.53-5.93-.96C5.1,25.13,1.81,31.01.56,37.01c1.68.84,3.37,1.91,5.01,3.31,0,0-2.24-.47-5.42-.88-.11.99-.17,1.99-.15,3Z"/>
      <path class="cls-2" d="M2.86,42.8c2.14.88,4.32,2.2,6.39,4.17,0,0-2.68-.6-6.21-.97.03.37.08.73.14,1.09,2.15.87,4.34,2.21,6.43,4.18,0,0-2.49-.55-5.84-.92,1.63,7.2,5.16,13.43,8.65,20.14,2.04.87,4.11,2.17,6.09,4.04,0,0-1.81-.4-4.43-.75,3.53,7.14,6.65,15.05,7.22,25.37.06.92.43,2.37.87,3.82,1.65-9.93,2.11-22.5,1.98-30.43-.47-28.49-9.27-41.02-.84-60.04,2.5-5.63,5.3-9.11,5.98-12.23-1.14.96-5.18,4.45-9.79,9.5.37.97.67,2.03.91,3.15,0,0-.74-.81-1.96-1.98-1.93,2.18-3.91,4.6-5.8,7.2,1.3.77,2.61,1.73,3.87,2.92,0,0-2.22-.5-5.29-.88-3.57,5.28-6.59,11.19-7.79,17.19,1.49.81,2.99,1.87,4.44,3.24,0,0-2-.44-4.84-.81-.11.99-.18,1.99-.17,3Z"/>
      <path class="cls-3" d="M24.16,72.54c.12,7.93-.33,20.5-1.98,30.43h0s-.61,13.3-.61,13.3c.04,0,.07-.01.11-.02,2.1-.46,3.64-3.29,4.74-7.43l.43-4.69c.22-.26.45-.55.69-.83,1.58-10.3,1.54-24.34,1.04-32.92-1.67-28.45-10.98-40.6-3.36-59.95,1.66-4.22,3.53-7.28,4.62-9.85-.14-.38-.23-.57-.23-.57,0,0-.11.09-.32.26-.68,3.12-3.48,6.6-5.98,12.23-8.42,19.02.38,31.55.84,60.04Z"/>
    </g>
  </g>
</svg>