<?xml version="1.0" encoding="UTF-8"?>
<svg id="Layer_2" data-name="Layer 2" xmlns="http://www.w3.org/2000/svg" viewBox="0 0 393.36 345.47">
  <defs>
    <style>
      .cls-1 {
        fill: #242422;
      }

      .cls-2 {
        fill: #a3a2a1;
      }

      .cls-3 {
        fill: none;
        stroke: #262524;
        stroke-miterlimit: 10;
        stroke-width: 2.17px;
      }

      .cls-4 {
        fill: #d83e2d;
      }
    </style>
  </defs>
  <g id="Layer_1-2" data-name="Layer 1">
    <g>
      <path class="cls-1" d="M26.45,9.28l2.18,105.55.28,13.21.13,6.6c-.02,14.33,11.66,27.38,25.9,28.5,3.01.37,8.5-.02,11.6,0,6.58-.16,19.82-.4,26.41-.54,1.08-.03,7.21-.12,8.16-.19,6.94-.26,13.69-3.28,18.45-8.23,5.09-5.37,7.6-12.22,7.34-19.53l-.13-6.6-.28-13.19-2.18-105.56h34.89l-2.17,105.56c-.08,4.44-.34,15.52-.42,19.79.33,28.68-24.41,54.53-53.16,54.73-11.06.11-25.79-.53-36.91-.64-1.19-.03-7.23-.12-8.31-.19-25.34-.16-48.44-20.49-51.32-45.65-1.25-19.18,2.14-112.67,2.1-133.63h17.44Z"/>
      <path class="cls-1" d="M305.06,187.56l-2.13-105.56-.26-13.19-.12-6.6c.02-14.28-11.61-27.27-25.82-28.4-3.01-.37-8.48.02-11.6,0-6.58.14-19.83.39-26.41.54-1.07.03-7.2.11-8.17.19-6.91.25-13.65,3.24-18.4,8.2-5.08,5.37-7.61,12.18-7.34,19.48l.12,6.6.26,13.19,2.14,105.56h-34.89l2.14-105.56c.06-4.44.31-15.52.4-19.79-.31-28.73,24.41-54.57,53.22-54.81,11.05-.11,25.79.5,36.91.64,1.2.03,7.24.12,8.31.19,25.4.17,48.53,20.5,51.44,45.73,1.26,19.2-2.08,112.69-2.05,133.64h-17.78l.02-.03Z"/>
      <polygon class="cls-1" points="347.11 187.56 358.77 42.67 370.32 42.67 382 187.56 347.11 187.56"/>
      <rect class="cls-1" x="349.69" y="4.8" width="29.75" height="26.97"/>
      <path class="cls-2" d="M18.04,342.87c-1.56-34.76-2.23-71.77-2.57-106.63.59-26.47,37.86-31.33,45.15-5.82,2.71,9.24-1.52,19.95-9.52,25.04l-5.71,4.03c-11.14,7.77-23.45,16.17-34.9,23.33l-4.63-6.21c7.03-6.15,14.17-12.18,21.4-18.05l10.91-8.76c1.3-1.1,6.45-4.95,7.48-6.04,2.47-2.56,3.33-6.49,2.38-9.91-2.9-10.24-18.24-9.22-19.54,1.45-.33,5.91-.22,17.66-.35,23.7-.52,27.09-1.04,56.9-2.32,83.84h-7.75l-.02.02Z"/>
      <path class="cls-2" d="M127.6,343.6l-12.79-9.59c-2.99-2.36-4.52-5.73-5.04-8.96-.71-5.28,2.62-34.37,2.83-40.45.17-2.55.71-9.41.86-11.9.5-4,.22-8.66-3.63-10.43-1.97-.61-8.74-.71-10.86-.99-37.41-.28-39.89,68.63-3.07,70.88l3.96.39c.91,0,3.79.69,4.65.15,1.82-.82,3.12-3.68,3.29-6.02.52-3.85,1.06-8.03,1.71-11.82l7.74.59c.04,2.66,0,5.32-.06,7.98l-.07,3.98c.28,7.47-5.21,16.12-13.7,16.21-2.44.04-5.91-.3-8.37-.39-24.69.24-38.98-27.44-35.33-49.15,2.06-19.82,18.02-41.12,39.74-39.32,1.56.09,8.59.71,9.98.82,8.35.89,11.64,10.54,10.28,17.58-.89,10.58-2.73,36.75-3.48,47.55-.32,2.85.67,6.17,2.79,7.64l13.05,8.9-4.5,6.3.02.04Z"/>
      <path class="cls-2" d="M150.53,342.87c-1.52-27.33-2.27-59.78-2.67-87.2-2.2-22.44,21.66-37.61,40.8-25.6,16.92,11.19,15.4,34.35-.47,45.45-2.75,2.68-8.4,6.86-10.11,10.15-2.67,4.59-2.25,10.76,1.02,14.96-.17-.13,11.52,13.61,11.88,14,7.05,8.55,14.24,16.99,21.16,25.65l-5.76,5.19c-11.91-11.95-24.83-25.15-36.3-37.62-9.1-10.35-7.34-27.61,3.17-36.23,2.76-2.69,9.16-8.4,11.26-10.87,4.74-5.8,3.18-15.28-3.21-19.17-8.1-5.5-19.95.5-20.28,10.26-.28,8.16-.16,16.45-.47,24.59-.42,19.56-1.15,47.18-2.3,66.44h-7.75.02Z"/>
      <path class="cls-4" d="M231.75,342.87c-2.44-66.57-3.29-139.2-3.76-206.05-.61-21.67,23.43-38.32,43.75-30.38,18.58,6.44,27.09,29.89,17.19,46.78l-1.77,3.54c-4.41,8.97-16.64,33.26-21.3,42.5l-7.14,14.16c-1.52,3.24-5.08,9.06-5.56,12.52-.82,3.96.02,8.05,1.65,11.71l5.76,14.76,11.38,29.57c7.39,19.8,15.01,39.52,22.16,59.41l-7.17,2.94c-8.87-19.2-17.25-38.59-25.85-57.91l-12.62-29.08c-.4-1.04-6.91-16.04-7.02-16.4-3.68-8.38-3.29-18.77.84-26.83,10.12-21.11,23.32-48.47,33.61-69.51,4.5-8.77-.4-20.3-9.55-23.56-10.39-4.13-23.4,4.36-23.04,15.91-.56,66.87-1.37,139.31-3.82,205.89h-7.75.02Z"/>
      <path class="cls-2" d="M303.45,268.57c-3.15,3.22-3.71,8.33-2.1,12.53l2.93,10.21c.29.8.87,3.03,1.13,3.81,1.79,7.1,10.03,11.41,17.05,8.76,6.18-1.99,8.59-8.37,11.85-13.51,2.48-3.87,2.79-8.66.67-12.66-.67-1.15-5.43-9.87-6.23-11.25l-1.27-2.32c-3.29-7.6-12.78-8.29-18.07-2.66-1.57,1.8-4.41,5.24-5.99,7.08l.03.02ZM289.6,258.57c.98-1.43,3.2-5.39,4.15-6.79,11.26-20.19,42.11-15.61,48.18,6.1,1.18,3.59,3.93,11.93,5.06,15.5,3.11,9.76-1.43,19.46-7.92,26.58-7.96,13.44-26.43,17.01-37.96,5.56-3.01-2.73-4.8-6.62-6.72-10.13l-5.12-9.31c-5.22-8.27-5.11-19.24.34-27.51Z"/>
      <path class="cls-2" d="M369.3,342.87c-2.67-20.22-3.56-40.52-4.02-60.88-.31-20.43-.42-40.71,4.02-60.88h7.76c6.26,30.15,4.07,60.82,2.84,91.31-.68,10.15-1.46,20.3-2.84,30.43h-7.76v.02Z"/>
      <path class="cls-1" d="M264.96,138.71c0,3.21-2,5.82-4.46,5.82s-4.47-2.61-4.47-5.82,2-5.81,4.47-5.81,4.46,2.59,4.46,5.81Z"/>
      <path class="cls-2" d="M393.36,258.94c-13.27-2.34-27-2.71-40.24,0v-9.29c6.66,1.54,13.37,1.84,20.12,1.82,6.75-.11,13.46-.47,20.12-1.82v9.29Z"/>
      <path class="cls-3" d="M22.06,5.57l2.18,105.55.28,13.19.13,6.6c-.02,14.34,11.66,27.4,25.9,28.5,3.01.37,8.5-.02,11.6,0,6.58-.14,19.82-.4,26.41-.53,1.08-.05,7.21-.14,8.16-.19,6.94-.26,13.69-3.28,18.45-8.24,5.1-5.37,7.61-12.22,7.35-19.51l-.13-6.61-.28-13.19-2.18-105.55h34.88l-2.17,105.55c-.08,4.44-.33,15.52-.4,19.81.31,28.68-24.42,54.51-53.17,54.71-11.06.12-25.79-.51-36.91-.62-1.19-.05-7.23-.14-8.31-.19-25.34-.17-48.44-20.49-51.32-45.66C1.27,119.99,4.65,26.51,4.62,5.57h17.44Z"/>
      <path class="cls-3" d="M300.69,183.83l-2.14-105.55-.26-13.21-.12-6.6c.02-14.26-11.6-27.27-25.8-28.4-3.01-.37-8.49.02-11.61,0-6.58.16-19.81.39-26.39.54-1.09.03-7.22.11-8.17.19-6.92.26-13.65,3.26-18.41,8.2-5.08,5.37-7.61,12.2-7.34,19.48l.12,6.6.26,13.21,2.14,105.55h-34.89l2.14-105.55c.08-4.44.31-15.52.4-19.81-.31-28.71,24.42-54.57,53.22-54.79,11.07-.12,25.79.5,36.91.62,1.2.05,7.24.14,8.32.19,25.4.17,48.52,20.5,51.42,45.74,1.27,19.2-2.08,112.69-2.03,133.63h-17.78l.02-.03Z"/>
      <polygon class="cls-3" points="342.73 183.83 354.39 38.96 365.96 38.96 377.62 183.83 342.73 183.83"/>
      <rect class="cls-3" x="345.29" y="1.09" width="29.75" height="26.97"/>
      <path class="cls-3" d="M13.65,339.15c-1.56-34.76-2.23-71.77-2.57-106.63.6-26.48,37.86-31.32,45.15-5.82,2.72,9.24-1.52,19.95-9.52,25.04l-5.71,4.03c-11.14,7.77-23.45,16.17-34.9,23.33l-4.63-6.21c7.03-6.15,14.17-12.18,21.4-18.05l10.92-8.76c1.3-1.1,6.45-4.94,7.47-6.04,2.47-2.57,3.33-6.49,2.38-9.91-2.9-10.24-18.24-9.22-19.54,1.45-.34,5.91-.22,17.66-.35,23.7-.52,27.09-1.04,56.9-2.32,83.84h-7.75l-.02.02Z"/>
      <path class="cls-3" d="M123.23,339.88l-12.79-9.59c-2.99-2.36-4.52-5.72-5.04-8.96-.71-5.28,2.62-34.37,2.83-40.45.17-2.55.71-9.41.86-11.9.5-4,.22-8.66-3.63-10.43-1.97-.61-8.74-.71-10.86-.99-37.41-.28-39.89,68.63-3.07,70.88l3.96.39c.91,0,3.79.69,4.65.15,1.82-.82,3.12-3.68,3.29-6.02.52-3.85,1.06-8.03,1.71-11.82l7.74.6c.04,2.66,0,5.32-.06,7.98l-.07,3.98c.28,7.47-5.21,16.12-13.7,16.21-2.43.04-5.91-.3-8.37-.39-24.69.24-38.98-27.44-35.33-49.15,2.06-19.82,18.02-41.12,39.74-39.32,1.56.09,8.59.71,9.99.82,8.35.89,11.64,10.54,10.28,17.59-.89,10.58-2.73,36.75-3.48,47.55-.32,2.85.67,6.17,2.79,7.64l13.05,8.9-4.5,6.3.02.04Z"/>
      <path class="cls-3" d="M146.14,339.15c-1.52-27.33-2.27-59.78-2.65-87.2-2.22-22.44,21.64-37.61,40.79-25.6,16.92,11.19,15.4,34.35-.45,45.45-2.76,2.68-8.42,6.86-10.12,10.15-2.65,4.59-2.25,10.76,1.02,14.96-.17-.13,11.52,13.61,11.88,14,7.05,8.55,14.25,16.99,21.16,25.65l-5.76,5.19c-11.91-11.95-24.83-25.15-36.3-37.63-9.1-10.35-7.34-27.61,3.18-36.23,2.75-2.7,9.14-8.4,11.24-10.87,4.75-5.8,3.18-15.28-3.21-19.17-8.1-5.5-19.95.5-20.26,10.26-.28,8.16-.17,16.45-.47,24.59-.43,19.56-1.15,47.18-2.31,66.44h-7.75.02Z"/>
      <path class="cls-3" d="M227.36,339.15c-2.42-66.57-3.29-139.21-3.74-206.04-.62-21.68,23.43-38.34,43.75-30.38,18.57,6.43,27.09,29.89,17.17,46.77l-1.77,3.55c-4.39,8.96-16.63,33.25-21.3,42.5l-7.14,14.14c-1.52,3.26-5.08,9.07-5.56,12.53-.82,3.96.02,8.05,1.66,11.71l5.76,14.76,11.38,29.58c7.37,19.8,15,39.52,22.14,59.41l-7.17,2.94c-8.85-19.2-17.23-38.59-25.85-57.91l-12.62-29.07c-.39-1.04-6.89-16.04-7.02-16.4-3.68-8.38-3.29-18.78.84-26.82,10.12-21.12,23.32-48.49,33.63-69.51,4.5-8.79-.42-20.3-9.56-23.58-10.37-4.13-23.4,4.38-23.04,15.91-.56,66.87-1.35,139.31-3.8,205.9h-7.76.02Z"/>
      <path class="cls-3" d="M299.09,264.85c-3.17,3.22-3.73,8.33-2.11,12.53l2.95,10.21c.29.8.87,3.03,1.13,3.81,1.79,7.1,10.01,11.41,17.05,8.76,6.18-1.99,8.57-8.36,11.85-13.51,2.47-3.87,2.79-8.66.67-12.66-.67-1.15-5.45-9.87-6.23-11.25l-1.29-2.33c-3.29-7.6-12.78-8.29-18.07-2.66-1.57,1.8-4.41,5.24-5.99,7.08l.05.02ZM285.21,254.85c.99-1.43,3.2-5.39,4.15-6.78,11.26-20.19,42.11-15.61,48.19,6.1,1.16,3.59,3.91,11.93,5.05,15.5,3.11,9.76-1.43,19.46-7.92,26.58-7.95,13.44-26.43,17.01-37.95,5.56-3.01-2.73-4.8-6.62-6.74-10.13l-5.11-9.31c-5.23-8.27-5.12-19.24.33-27.51Z"/>
      <path class="cls-3" d="M364.92,339.15c-2.69-20.22-3.56-40.53-4.02-60.88-.33-20.43-.43-40.71,4.02-60.88h7.75c6.27,30.15,4.07,60.82,2.84,91.31-.68,10.15-1.44,20.3-2.84,30.43h-7.75v.02Z"/>
      <ellipse class="cls-3" cx="256.11" cy="135" rx="4.46" ry="5.82"/>
      <path class="cls-3" d="M388.97,255.22c-13.27-2.34-27-2.71-40.23,0v-9.29c6.65,1.54,13.37,1.84,20.11,1.82,6.75-.11,13.48-.46,20.12-1.82v9.29Z"/>
    </g>
  </g>
</svg>